# AST/ASF file generated using VICON BodyLanguage
# -----------------------------------------------
:version 1.10
:name VICON
:units
  mass 1.0
  length 0.45
  angle deg
:documentation
   .ast/.asf automatically generated from VICON data using
   VICON BodyBuilder and BodyLanguage model FoxedUp or BRILLIANT.MOD
:root
   order TX TY TZ RX RY RZ
   axis XYZ
   position 0 0 0  
   orientation 0 0 0 
:bonedata
  begin
     id 1 
     name lhipjoint
     direction 0.567149 -0.783011 0.255413 
     length 2.28399 
     axis 0 0 0  XYZ
  end
  begin
     id 2 
     name lfemur
     direction 0.34202 -0.939693 0  
     length 7.34031  
     axis 0 0 20  XYZ
    dof rx ry rz
    limits (-160.0 20.0)
           (-70.0 70.0)
           (-60.0 70.0)
  end
  begin
     id 3 
     name ltibia
     direction 0.34202 -0.939693 0   
     length 6.9833   
     axis 0 0 20   XYZ
    dof rx
    limits (-10.0 170.0)
  end
  begin
     id 4 
     name lfoot
     direction 0.136498 -0.375025 0.91691   
     length 2.33665   
     axis -90 7.62852e-016 20   XYZ
    dof rx rz
    limits (-45.0 90.0)
           (-70.0 20.0)
  end
  begin
     id 5 
     name ltoes
     direction 1.5367e-011 -4.21617e-011 1   
     length 1.15039   
     axis -90 7.62852e-016 20   XYZ
    dof rx
    limits (-90.0 20.0)
  end
  begin
     id 6 
     name rhipjoint
     direction -0.602854 -0.758518 0.247423   
     length 2.35775  
     axis 0 0 0  XYZ 
  end
  begin
     id 7 
     name rfemur
     direction -0.34202 -0.939693 0   
     length 7.43932   
     axis 0 0 -20   XYZ
    dof rx ry rz
    limits (-160.0 20.0)
           (-70.0 70.0)
           (-70.0 60.0)
  end
  begin
     id 8 
     name rtibia
     direction -0.34202 -0.939693 0   
     length 7.11893   
     axis 0 0 -20   XYZ
    dof rx
    limits (-10.0 170.0)
 end
 begin
     id 9 
     name rfoot
     direction -0.131771 -0.362037 0.922803   
     length 2.53019  
     axis -90 -7.62852e-016 -20   XYZ
    dof rx rz
    limits (-45.0 90.0)
           (-20.0 70.0)
  end
  begin
     id 10 
     name rtoes
     direction -1.53733e-011 -4.21932e-011 1   
     length 1.24596   
     axis -90 -7.62852e-016 -20   XYZ
    dof rx
    limits (-90.0 20.0)
  end
  begin
     id 11 
     name lowerback
     direction 0.0235427 0.999023 -0.0374125   
     length 2.21768   
     axis 0 0 0   XYZ
    dof rx ry rz
    limits (-20.0 45.0)
           (-30.0 30.0)
           (-30.0 30.0)
  end
  begin
     id 12 
     name upperback
     direction 0.0302156 0.996818 -0.073759   
     length 2.20352   
     axis 0 0 0   XYZ
    dof rx ry rz
    limits (-20.0 45.0)
           (-30.0 30.0)
           (-30.0 30.0)
  end
  begin
     id 13 
     name thorax
     direction 0.0187169 0.998235 -0.0563532   
     length 2.22103   
     axis 0 0 0   XYZ
    dof rx ry rz
    limits (-20.0 45.0)
           (-30.0 30.0)
           (-30.0 30.0)
  end
  begin
     id 14 
     name lowerneck
     direction -0.119528 0.987423 0.103481   
     length 1.72948   
     axis 0 0 0   XYZ
    dof rx ry rz
    limits (-20.0 45.0)
           (-30.0 30.0)
           (-30.0 30.0)
  end
  begin
     id 15 
     name upperneck
     direction 0.248049 0.963095 -0.104496   
     length 1.74979   
     axis 0 0 0   XYZ
    dof rx ry rz
    limits (-20.0 45.0)
           (-30.0 30.0)
           (-30.0 30.0)
  end
  begin
     id 16
     name head
     direction 0.0903589 0.994284 -0.056876  
     length 1.78268  
     axis 0 0 0   XYZ
    dof rx ry rz
    limits (-20.0 45.0)
           (-30.0 30.0)
           (-30.0 30.0)
  end
  begin
     id 17 
     name lclavicle
     direction 0.946008 0.242039 -0.215608  
     length 3.80783  
     axis 0 0 0   XYZ
    dof ry rz
    limits (-20.0 10.0)
           (0.0 20.0)
  end
  begin
     id 18 
     name lhumerus
     direction 1 -4.48991e-011 -2.25695e-027   
     length 4.83125   
     axis 180 -30 -90   XYZ
    dof rx ry rz
    limits (-60.0 90.0)
           (-90.0 90.0)
           (-90.0 90.0)
  end
  begin
     id 19
     name lradius
     direction 0.999991 0.00366712 -0.00211721   
     length 3.00391   
     axis 180 -30 -90   XYZ
    dof rx
    limits (-10.0 170.0)
  end
  begin
     id 20
     name lwrist
     direction 0.999991 0.00393016 -0.00141978   
     length 1.50195   
     axis -1.00488e-014 90 90   XYZ
    dof ry
    limits (-180.0 0.0)
 end
  begin
     id 21 
     name lhand
     direction 1 -4.49123e-011 2.72098e-026   
     length 1.2717   
     axis -1.73687e-014 90 90   XYZ
    dof rx rz
    limits (-90.0 90.0)
           (-45.0 45.0)
  end
  begin
     id 22 
     name lfingers
     direction 1 -4.48678e-011 5.4479e-026   
     length 1.02528   
     axis -3.47372e-014 90 90   XYZ
    dof rx
    limits (0.0 90.0)
  end
  begin
     id 23
     name lthumb
     direction 0.707107 -6.34851e-011 0.707107   
     length 1.4721   
     axis -90 45 -1.62303e-014   XYZ
    dof rx rz
    limits (-45.0 45.0)
           (-45.0 45.0)
  end
  begin
     id 24 
     name rclavicle
     direction -0.981723 0.189447 -0.0181673   
     length 3.74989  
     axis 0 0 0   XYZ 
    dof ry rz
    limits (-10.0 20.0)
           (-20.0 0.0)
  end
  begin
     id 25 
     name rhumerus
     direction -1 -4.48985e-011 2.38206e-027  
     length 4.61118   
     axis 180 30 90   XYZ
    dof rx ry rz
    limits (-90.0 60.0)
           (-90.0 90.0)
           (-90.0 90.0)
  end
  begin
     id 26 
     name rradius
     direction -1 -4.48977e-011 7.41019e-027   
     length 2.91491   
     axis 180 30 90   XYZ
    dof rx
    limits (-10.0 170.0)
  end
  begin
     id 27 
     name rwrist
     direction -1 -4.48549e-011 1.3624e-026   
     length 1.45745   
     axis -1.00488e-014 -90 -90   XYZ
    dof ry
    limits (-180.0 0.0)
  end
  begin
     id 28
     name rhand
     direction -1 -4.49107e-011 2.72109e-026   
     length 1.30769   
     axis -1.73687e-014 -90 -90   XYZ
    dof rx rz
    limits (-90.0 90.0)
           (-45.0 45.0)
  end
  begin
     id 29
     name rfingers
     direction -1 -4.48919e-011 5.44468e-026   
     length 1.05429   
     axis -3.47372e-014 -90 -90   XYZ
    dof rx
    limits (0.0 90.0)
  end
  begin
     id 30
     name rthumb
     direction -0.707107 -6.35315e-011 0.707107   
     length 1.51376   
     axis -90 -45 1.62303e-014   XYZ
    dof rx rz
    limits (-45.0 45.0)
           (-45.0 45.0)
  end
:hierarchy
  begin
    root lhipjoint rhipjoint lowerback
    lhipjoint lfemur
    lfemur ltibia
    ltibia lfoot
    lfoot ltoes
    rhipjoint rfemur
    rfemur rtibia
    rtibia rfoot
    rfoot rtoes
    lowerback upperback
    upperback thorax
    thorax lowerneck lclavicle rclavicle
    lowerneck upperneck
    upperneck head
    lclavicle lhumerus
    lhumerus lradius
    lradius lwrist
    lwrist lhand lthumb
    lhand lfingers
    rclavicle rhumerus
    rhumerus rradius
    rradius rwrist
    rwrist rhand rthumb
    rhand rfingers
  end

#!OML:ASF X:\für Bonn\!DataBase\2005_08_11_Bastian_Final\c3d\Bastian.ASF
:FULLY-SPECIFIED
:DEGREES
16
root -0.311682 17.2808 6.30949 174.676 -7.25811 -179.766
lowerback 9.68691 -2.24348 -3.51533
upperback 5.56186 -3.82566 -0.577958
thorax 0.537016 -2.22209 1.70798
lowerneck -7.87839 -7.41114 -4.68645
upperneck -5.49995 -8.74932 12.4335
head 0.472956 -3.94846 4.65122
rclavicle -3.61788e-014 1.07344e-014
rhumerus 67.4696 18.738 -11.3945
rradius 42.8409
rwrist -44.4468
rhand -45.5037 -1.41173
rfingers 7.12502
rthumb -18.2683 -30.5739
lclavicle -3.61788e-014 1.07344e-014
lhumerus 57.7763 -16.6099 11.9859
lradius 38.5423
lwrist 0.24448
lhand -44.3544 8.62422
lfingers 7.12502
lthumb -17.1624 37.8863
rfemur -8.56959 -0.125807 23.7848
rtibia 41.9423
rfoot -24.1725 -14.7066
rtoes -0.221869
lfemur -4.97048 4.58662 -19.3764
ltibia 31.7303
lfoot -13.9872 -11.4095
ltoes -7.42261
17
root -0.310595 17.27 6.29911 174.478 -7.26614 -179.919
lowerback 9.79671 -2.22909 -3.63759
upperback 5.62842 -3.83472 -0.63543
thorax 0.550894 -2.23587 1.72114
lowerneck -7.82246 -7.43473 -4.73179
upperneck -5.53653 -8.77881 12.4182
head 0.455324 -3.96643 4.65537
rclavicle -3.80673e-014 1.90833e-014
rhumerus 67.3973 18.9502 -11.4462
rradius 42.8242
rwrist -44.3226
rhand -45.4285 -1.48073
rfingers 7.12502
rthumb -18.196 -30.6496
lclavicle -3.80673e-014 1.90833e-014
lhumerus 57.6654 -16.7525 12.2106
lradius 38.5092
lwrist 0.0880487
lhand -44.3658 8.71999
lfingers 7.12502
lthumb -17.1733 37.9811
rfemur -8.41071 -0.474568 23.5539
rtibia 42.088
rfoot -24.0953 -14.4621
rtoes -0.301964
lfemur -4.78108 4.43019 -19.5514
ltibia 31.9168
lfoot -14.1849 -11.235
ltoes -7.56676
18
root -0.309216 17.2596 6.28915 174.318 -7.28895 -180.076
lowerback 9.87843 -2.20986 -3.75687
upperback 5.69042 -3.8347 -0.68955
thorax 0.57497 -2.24468 1.73387
lowerneck -7.8821 -7.47236 -4.77127
upperneck -5.46635 -8.83875 12.3738
head 0.493861 -3.99494 4.64023
rclavicle -2.20651e-014 6.75868e-015
rhumerus 67.2531 19.1307 -11.6456
rradius 42.7971
rwrist -44.1414
rhand -45.3095 -1.47772
rfingers 7.12502
rthumb -18.0814 -30.6573
lclavicle -2.20651e-014 6.75868e-015
lhumerus 57.6075 -16.872 12.4201
lradius 38.4646
lwrist -0.0623669
lhand -44.3878 8.82453
lfingers 7.12502
lthumb -17.1945 38.0838
rfemur -8.30488 -0.822236 23.3176
rtibia 42.2502
rfoot -24.0351 -14.2218
rtoes -0.379103
lfemur -4.65281 4.22601 -19.7395
ltibia 32.1359
lfoot -14.3884 -11.0532
ltoes -7.56618
19
root -0.307915 17.2485 6.27935 174.161 -7.31459 -180.233
lowerback 9.98114 -2.20429 -3.88999
upperback 5.72063 -3.85199 -0.734719
thorax 0.557168 -2.25979 1.76746
lowerneck -7.83992 -7.49881 -4.805
upperneck -5.45203 -8.88323 12.3005
head 0.492585 -4.02183 4.61895
rclavicle 1.22253e-014 -7.15625e-015
rhumerus 67.1198 19.3603 -11.8944
rradius 42.7577
rwrist -43.9257
rhand -45.1882 -1.37422
rfingers 7.12502
rthumb -17.9647 -30.5645
lclavicle 1.22253e-014 -7.15625e-015
lhumerus 57.504 -17.011 12.6616
lradius 38.4007
lwrist -0.170624
lhand -44.4014 8.86079
lfingers 7.12502
lthumb -17.2075 38.1189
rfemur -8.2139 -1.21713 23.0692
rtibia 42.4347
rfoot -24.0066 -13.9255
rtoes -0.508932
lfemur -4.55271 4.06938 -19.9253
ltibia 32.3938
lfoot -14.6024 -10.8726
ltoes -7.79978
20
root -0.305954 17.2373 6.26975 174.002 -7.36933 -180.323
lowerback 10.0925 -2.20878 -3.93945
upperback 5.75426 -3.87616 -0.775499
thorax 0.533293 -2.27639 1.76011
lowerneck -7.8393 -7.53494 -4.84311
upperneck -5.41176 -8.94037 12.2519
head 0.51004 -4.05211 4.60477
rclavicle 4.07509e-015 2.38542e-015
rhumerus 66.9343 19.5676 -12.2769
rradius 42.7102
rwrist -43.5849
rhand -45.0311 -1.27794
rfingers 7.12502
rthumb -17.8135 -30.4821
lclavicle 4.07509e-015 2.38542e-015
lhumerus 57.4371 -17.1422 12.8842
lradius 38.3228
lwrist -0.275762
lhand -44.4554 8.89259
lfingers 7.12502
lthumb -17.2596 38.1461
rfemur -8.14277 -1.65803 22.8877
rtibia 42.6481
rfoot -23.9645 -13.6436
rtoes -0.602604
lfemur -4.48999 3.86143 -20.0406
ltibia 32.6942
lfoot -14.8161 -10.7204
ltoes -7.87489
21
root -0.304198 17.2266 6.25932 173.881 -7.43791 -180.44
lowerback 10.1622 -2.21562 -4.02884
upperback 5.78865 -3.90392 -0.809556
thorax 0.536465 -2.29593 1.77968
lowerneck -7.89266 -7.57564 -4.85431
upperneck -5.35305 -9.00701 12.1508
head 0.539192 -4.08615 4.56375
rclavicle 5.38706e-014 1.51076e-014
rhumerus 66.7603 19.7427 -12.5852
rradius 42.6878
rwrist -43.298
rhand -44.9077 -1.19617
rfingers 7.12502
rthumb -17.6949 -30.411
lclavicle 5.38706e-014 1.51076e-014
lhumerus 57.3311 -17.2221 13.2366
lradius 38.2388
lwrist -0.458283
lhand -44.4626 8.82475
lfingers 7.12502
lthumb -17.2665 38.0777
rfemur -8.13467 -2.12134 22.668
rtibia 42.9149
rfoot -23.9529 -13.3239
rtoes -0.657661
lfemur -4.49476 3.61313 -20.2003
ltibia 33.0592
lfoot -15.0527 -10.5109
ltoes -8.0967
22
root -0.302011 17.2141 6.25235 173.732 -7.51892 -180.509
lowerback 10.3166 -2.22817 -4.05573
upperback 5.79351 -3.93658 -0.839407
thorax 0.459049 -2.31354 1.77571
lowerneck -7.88342 -7.61995 -4.88049
upperneck -5.2984 -9.08033 12.0645
head 0.558244 -4.12625 4.53287
rclavicle 2.6339e-014 4.77083e-015
rhumerus 66.5879 19.9538 -12.8355
rradius 42.6787
rwrist -43.0735
rhand -44.8022 -1.0559
rfingers 7.12502
rthumb -17.5933 -30.2799
lclavicle 2.6339e-014 4.77083e-015
lhumerus 57.2179 -17.3352 13.6097
lradius 38.1351
lwrist -0.600458
lhand -44.5044 8.68267
lfingers 7.12502
lthumb -17.3067 37.9321
rfemur -8.15304 -2.6078 22.4917
rtibia 43.2541
rfoot -23.9971 -12.9926
rtoes -0.639948
lfemur -4.53303 3.38043 -20.3027
ltibia 33.5051
lfoot -15.2903 -10.366
ltoes -8.1557
23
root -0.299164 17.1988 6.25243 173.588 -7.61455 -180.603
lowerback 10.5695 -2.24031 -4.10668
upperback 5.78022 -3.97681 -0.864385
thorax 0.311657 -2.33408 1.79767
lowerneck -7.88741 -7.67208 -4.88698
upperneck -5.26967 -9.16317 11.9218
head 0.567279 -4.17202 4.47748
rclavicle -3.26007e-014 -3.97569e-016
rhumerus 66.4427 20.1457 -13.0458
rradius 42.661
rwrist -42.7808
rhand -44.7224 -1.02883
rfingers 7.12502
rthumb -17.5165 -30.2597
lclavicle -3.26007e-014 -3.97569e-016
lhumerus 57.0866 -17.3951 14.0721
lradius 38.0082
lwrist -0.835108
lhand -44.54 8.50239
lfingers 7.12502
lthumb -17.341 37.7488
rfemur -8.24588 -3.15351 22.2764
rtibia 43.6865
rfoot -24.0522 -12.6243
rtoes -0.766945
lfemur -4.65804 3.11103 -20.4424
ltibia 34.0578
lfoot -15.5552 -10.1914
ltoes -8.18594
